<mxfile host="app.diagrams.net" modified="2024-04-01T20:04:09.542Z" agent="Mozilla/5.0 (X11; Linux x86_64) AppleWebKit/537.36 (KHTML, like Gecko) Chrome/120.0.0.0 Safari/537.36" etag="FwxkJdkm1cba9x1mQX87" version="24.2.1" type="device">
  <diagram name="Page-1" id="GBj5iKv1wh0PbMnMIuHy">
    <mxGraphModel dx="1247" dy="713" grid="1" gridSize="10" guides="1" tooltips="1" connect="1" arrows="1" fold="1" page="1" pageScale="1" pageWidth="850" pageHeight="1100" math="0" shadow="0">
      <root>
        <mxCell id="0" />
        <mxCell id="1" parent="0" />
        <mxCell id="EJuAX2CbbpujH-HPQyCx-73" value="Form action" style="swimlane;startSize=20;horizontal=1;childLayout=flowLayout;flowOrientation=north;resizable=0;interRankCellSpacing=50;containerType=tree;fontSize=12;movable=0;rotatable=0;deletable=0;editable=0;locked=1;connectable=0;" vertex="1" parent="1">
          <mxGeometry x="10" y="150" width="155" height="280" as="geometry" />
        </mxCell>
        <mxCell id="EJuAX2CbbpujH-HPQyCx-74" value="Módosíttandó adat" style="whiteSpace=wrap;html=1;" vertex="1" parent="EJuAX2CbbpujH-HPQyCx-73">
          <mxGeometry x="20" y="40" width="115" height="40" as="geometry" />
        </mxCell>
        <mxCell id="EJuAX2CbbpujH-HPQyCx-75" value="Form séma" style="whiteSpace=wrap;html=1;" vertex="1" parent="EJuAX2CbbpujH-HPQyCx-73">
          <mxGeometry x="27.5" y="130" width="100" height="40" as="geometry" />
        </mxCell>
        <mxCell id="EJuAX2CbbpujH-HPQyCx-76" value="" style="html=1;rounded=1;curved=0;sourcePerimeterSpacing=0;targetPerimeterSpacing=0;startSize=6;endSize=6;noEdgeStyle=1;orthogonal=1;" edge="1" parent="EJuAX2CbbpujH-HPQyCx-73" source="EJuAX2CbbpujH-HPQyCx-74" target="EJuAX2CbbpujH-HPQyCx-75">
          <mxGeometry relative="1" as="geometry">
            <Array as="points">
              <mxPoint x="77.5" y="92" />
              <mxPoint x="77.5" y="118" />
            </Array>
          </mxGeometry>
        </mxCell>
        <mxCell id="EJuAX2CbbpujH-HPQyCx-82" value="Ellenőrzés&lt;div&gt;Mezőnként&lt;/div&gt;" style="edgeLabel;html=1;align=center;verticalAlign=middle;resizable=0;points=[];" vertex="1" connectable="0" parent="EJuAX2CbbpujH-HPQyCx-76">
          <mxGeometry x="-0.1257" y="1" relative="1" as="geometry">
            <mxPoint as="offset" />
          </mxGeometry>
        </mxCell>
        <mxCell id="EJuAX2CbbpujH-HPQyCx-112" value="" style="html=1;rounded=1;curved=0;sourcePerimeterSpacing=0;targetPerimeterSpacing=0;startSize=6;endSize=6;noEdgeStyle=1;orthogonal=1;" edge="1" target="EJuAX2CbbpujH-HPQyCx-114" source="EJuAX2CbbpujH-HPQyCx-75" parent="EJuAX2CbbpujH-HPQyCx-73">
          <mxGeometry relative="1" as="geometry">
            <mxPoint x="488" y="810" as="sourcePoint" />
            <Array as="points">
              <mxPoint x="77.5" y="182" />
              <mxPoint x="77.5" y="208" />
            </Array>
          </mxGeometry>
        </mxCell>
        <mxCell id="EJuAX2CbbpujH-HPQyCx-113" value="Beadáskor&lt;div&gt;Ellenőrzés&lt;/div&gt;" style="edgeLabel;html=1;align=center;verticalAlign=middle;resizable=0;points=[];" vertex="1" connectable="0" parent="EJuAX2CbbpujH-HPQyCx-112">
          <mxGeometry x="-0.1257" y="1" relative="1" as="geometry">
            <mxPoint as="offset" />
          </mxGeometry>
        </mxCell>
        <mxCell id="EJuAX2CbbpujH-HPQyCx-114" value="API séma" style="whiteSpace=wrap;html=1;" vertex="1" parent="EJuAX2CbbpujH-HPQyCx-73">
          <mxGeometry x="27.5" y="220" width="100" height="40" as="geometry" />
        </mxCell>
        <mxCell id="EJuAX2CbbpujH-HPQyCx-115" value="List" style="swimlane;fontStyle=0;childLayout=stackLayout;horizontal=1;startSize=30;horizontalStack=0;resizeParent=1;resizeParentMax=0;resizeLast=0;collapsible=1;marginBottom=0;whiteSpace=wrap;html=1;" vertex="1" parent="1">
          <mxGeometry x="10" y="10" width="155" height="120" as="geometry" />
        </mxCell>
        <mxCell id="EJuAX2CbbpujH-HPQyCx-116" value="Item 1" style="text;strokeColor=none;fillColor=none;align=left;verticalAlign=middle;spacingLeft=4;spacingRight=4;overflow=hidden;points=[[0,0.5],[1,0.5]];portConstraint=eastwest;rotatable=0;whiteSpace=wrap;html=1;" vertex="1" parent="EJuAX2CbbpujH-HPQyCx-115">
          <mxGeometry y="30" width="155" height="30" as="geometry" />
        </mxCell>
        <mxCell id="EJuAX2CbbpujH-HPQyCx-117" value="Item 2" style="text;strokeColor=none;fillColor=none;align=left;verticalAlign=middle;spacingLeft=4;spacingRight=4;overflow=hidden;points=[[0,0.5],[1,0.5]];portConstraint=eastwest;rotatable=0;whiteSpace=wrap;html=1;" vertex="1" parent="EJuAX2CbbpujH-HPQyCx-115">
          <mxGeometry y="60" width="155" height="30" as="geometry" />
        </mxCell>
        <mxCell id="EJuAX2CbbpujH-HPQyCx-118" value="Item 3" style="text;strokeColor=none;fillColor=none;align=left;verticalAlign=middle;spacingLeft=4;spacingRight=4;overflow=hidden;points=[[0,0.5],[1,0.5]];portConstraint=eastwest;rotatable=0;whiteSpace=wrap;html=1;" vertex="1" parent="EJuAX2CbbpujH-HPQyCx-115">
          <mxGeometry y="90" width="155" height="30" as="geometry" />
        </mxCell>
        <mxCell id="EJuAX2CbbpujH-HPQyCx-119" value="" style="endArrow=classic;html=1;rounded=0;exitX=0.452;exitY=1.019;exitDx=0;exitDy=0;exitPerimeter=0;entryX=0.485;entryY=0.007;entryDx=0;entryDy=0;entryPerimeter=0;" edge="1" parent="1" source="EJuAX2CbbpujH-HPQyCx-118" target="EJuAX2CbbpujH-HPQyCx-73">
          <mxGeometry width="50" height="50" relative="1" as="geometry">
            <mxPoint x="220" y="170" as="sourcePoint" />
            <mxPoint x="270" y="120" as="targetPoint" />
            <Array as="points" />
          </mxGeometry>
        </mxCell>
        <mxCell id="EJuAX2CbbpujH-HPQyCx-120" value="Egy lista elemhez tartozó" style="edgeLabel;html=1;align=center;verticalAlign=middle;resizable=0;points=[];" vertex="1" connectable="0" parent="EJuAX2CbbpujH-HPQyCx-119">
          <mxGeometry x="-0.0764" relative="1" as="geometry">
            <mxPoint as="offset" />
          </mxGeometry>
        </mxCell>
        <mxCell id="EJuAX2CbbpujH-HPQyCx-121" style="edgeStyle=orthogonalEdgeStyle;rounded=1;orthogonalLoop=1;jettySize=auto;html=1;entryX=1.01;entryY=0.694;entryDx=0;entryDy=0;entryPerimeter=0;dashed=1;curved=0;" edge="1" parent="1" target="EJuAX2CbbpujH-HPQyCx-117">
          <mxGeometry relative="1" as="geometry">
            <mxPoint x="300" y="230" as="targetPoint" />
            <mxPoint x="88" y="410" as="sourcePoint" />
            <Array as="points">
              <mxPoint x="98" y="410" />
              <mxPoint x="98" y="440" />
              <mxPoint x="180" y="440" />
              <mxPoint x="180" y="90" />
              <mxPoint x="167" y="90" />
            </Array>
          </mxGeometry>
        </mxCell>
        <mxCell id="EJuAX2CbbpujH-HPQyCx-122" value="Optimisztikus&lt;div&gt;válasz&lt;/div&gt;" style="edgeLabel;html=1;align=center;verticalAlign=middle;resizable=0;points=[];" vertex="1" connectable="0" parent="EJuAX2CbbpujH-HPQyCx-121">
          <mxGeometry x="0.2527" y="-1" relative="1" as="geometry">
            <mxPoint x="29" y="-2" as="offset" />
          </mxGeometry>
        </mxCell>
        <mxCell id="EJuAX2CbbpujH-HPQyCx-126" value="" style="endArrow=classic;html=1;rounded=0;curved=1;dashed=1;movable=1;resizable=1;rotatable=1;deletable=1;editable=1;locked=0;connectable=1;" edge="1" parent="1">
          <mxGeometry width="50" height="50" relative="1" as="geometry">
            <mxPoint x="110" y="280" as="sourcePoint" />
            <mxPoint x="110" y="230" as="targetPoint" />
            <Array as="points">
              <mxPoint x="150" y="260" />
            </Array>
          </mxGeometry>
        </mxCell>
        <mxCell id="EJuAX2CbbpujH-HPQyCx-127" value="Hibás" style="edgeLabel;html=1;align=center;verticalAlign=middle;resizable=0;points=[];" vertex="1" connectable="0" parent="EJuAX2CbbpujH-HPQyCx-126">
          <mxGeometry x="-0.1488" y="9" relative="1" as="geometry">
            <mxPoint as="offset" />
          </mxGeometry>
        </mxCell>
        <mxCell id="EJuAX2CbbpujH-HPQyCx-128" value="" style="endArrow=classic;html=1;rounded=0;curved=1;dashed=1;movable=1;resizable=1;rotatable=1;deletable=1;editable=1;locked=0;connectable=1;entryX=0.108;entryY=1.079;entryDx=0;entryDy=0;entryPerimeter=0;" edge="1" parent="1" target="EJuAX2CbbpujH-HPQyCx-74">
          <mxGeometry width="50" height="50" relative="1" as="geometry">
            <mxPoint x="60" y="370" as="sourcePoint" />
            <mxPoint x="60" y="320" as="targetPoint" />
            <Array as="points">
              <mxPoint x="10" y="320" />
            </Array>
          </mxGeometry>
        </mxCell>
        <mxCell id="EJuAX2CbbpujH-HPQyCx-129" value="Hibás" style="edgeLabel;html=1;align=center;verticalAlign=middle;resizable=0;points=[];" vertex="1" connectable="0" parent="EJuAX2CbbpujH-HPQyCx-128">
          <mxGeometry x="-0.1488" y="9" relative="1" as="geometry">
            <mxPoint x="26" y="-67" as="offset" />
          </mxGeometry>
        </mxCell>
        <mxCell id="EJuAX2CbbpujH-HPQyCx-130" value="Server - Form Action" style="swimlane;startSize=20;horizontal=1;childLayout=flowLayout;flowOrientation=north;resizable=0;interRankCellSpacing=50;containerType=tree;fontSize=12;flipV=1;" vertex="1" parent="1">
          <mxGeometry x="310" width="270" height="460" as="geometry" />
        </mxCell>
        <mxCell id="EJuAX2CbbpujH-HPQyCx-131" value="Felhasználó&lt;div&gt;autentikált&lt;/div&gt;" style="whiteSpace=wrap;html=1;flipV=1;" vertex="1" parent="EJuAX2CbbpujH-HPQyCx-130">
          <mxGeometry x="85" y="20" width="100" height="40" as="geometry" />
        </mxCell>
        <mxCell id="EJuAX2CbbpujH-HPQyCx-134" value="Kérés" style="whiteSpace=wrap;html=1;flipV=1;" vertex="1" parent="EJuAX2CbbpujH-HPQyCx-130">
          <mxGeometry x="150" y="110" width="100" height="40" as="geometry" />
        </mxCell>
        <mxCell id="EJuAX2CbbpujH-HPQyCx-135" value="" style="html=1;rounded=1;curved=0;sourcePerimeterSpacing=0;targetPerimeterSpacing=0;startSize=6;endSize=6;noEdgeStyle=1;orthogonal=1;startArrow=classic;startFill=1;endArrow=none;endFill=0;" edge="1" parent="EJuAX2CbbpujH-HPQyCx-130" source="EJuAX2CbbpujH-HPQyCx-131" target="EJuAX2CbbpujH-HPQyCx-134">
          <mxGeometry relative="1" as="geometry">
            <Array as="points">
              <mxPoint x="157.5" y="72" />
              <mxPoint x="200" y="98" />
            </Array>
          </mxGeometry>
        </mxCell>
        <mxCell id="EJuAX2CbbpujH-HPQyCx-145" value="API séma&lt;div&gt;Helyes&lt;/div&gt;" style="whiteSpace=wrap;html=1;flipV=1;" vertex="1" parent="EJuAX2CbbpujH-HPQyCx-130">
          <mxGeometry x="23.25366973876953" y="200" width="100" height="40" as="geometry" />
        </mxCell>
        <mxCell id="EJuAX2CbbpujH-HPQyCx-144" value="" style="edgeStyle=orthogonalEdgeStyle;rounded=0;orthogonalLoop=1;jettySize=auto;html=1;noEdgeStyle=1;orthogonal=1;" edge="1" source="EJuAX2CbbpujH-HPQyCx-131" target="EJuAX2CbbpujH-HPQyCx-148" parent="EJuAX2CbbpujH-HPQyCx-130">
          <mxGeometry relative="1" as="geometry">
            <Array as="points">
              <mxPoint x="112.5" y="72" />
              <mxPoint x="70" y="98" />
            </Array>
          </mxGeometry>
        </mxCell>
        <mxCell id="EJuAX2CbbpujH-HPQyCx-147" value="" style="edgeStyle=orthogonalEdgeStyle;rounded=0;orthogonalLoop=1;jettySize=auto;html=1;noEdgeStyle=1;orthogonal=1;" edge="1" target="EJuAX2CbbpujH-HPQyCx-145" source="EJuAX2CbbpujH-HPQyCx-148" parent="EJuAX2CbbpujH-HPQyCx-130">
          <mxGeometry relative="1" as="geometry">
            <mxPoint x="948" y="760" as="sourcePoint" />
            <Array as="points">
              <mxPoint x="70" y="162" />
              <mxPoint x="73.25366973876953" y="188" />
            </Array>
          </mxGeometry>
        </mxCell>
        <mxCell id="EJuAX2CbbpujH-HPQyCx-148" value="Felhasználó&lt;div&gt;Autorizált&lt;/div&gt;" style="whiteSpace=wrap;html=1;flipV=1;" vertex="1" parent="EJuAX2CbbpujH-HPQyCx-130">
          <mxGeometry x="20" y="110" width="100" height="40" as="geometry" />
        </mxCell>
        <mxCell id="EJuAX2CbbpujH-HPQyCx-149" value="" style="edgeStyle=orthogonalEdgeStyle;rounded=0;orthogonalLoop=1;jettySize=auto;html=1;noEdgeStyle=1;orthogonal=1;" edge="1" target="EJuAX2CbbpujH-HPQyCx-150" source="EJuAX2CbbpujH-HPQyCx-145" parent="EJuAX2CbbpujH-HPQyCx-130">
          <mxGeometry relative="1" as="geometry">
            <mxPoint x="950" y="810" as="sourcePoint" />
            <Array as="points">
              <mxPoint x="73.25366973876953" y="252" />
              <mxPoint x="74.8805046081543" y="278" />
            </Array>
          </mxGeometry>
        </mxCell>
        <mxCell id="EJuAX2CbbpujH-HPQyCx-150" value="Adatbázis módosíttás" style="whiteSpace=wrap;html=1;flipV=1;" vertex="1" parent="EJuAX2CbbpujH-HPQyCx-130">
          <mxGeometry x="24.880504608154297" y="290" width="100" height="40" as="geometry" />
        </mxCell>
        <mxCell id="EJuAX2CbbpujH-HPQyCx-152" value="Szerver válasz" style="whiteSpace=wrap;html=1;flipV=1;" vertex="1" parent="EJuAX2CbbpujH-HPQyCx-130">
          <mxGeometry x="24.880504608154297" y="380" width="100" height="40" as="geometry" />
        </mxCell>
        <mxCell id="EJuAX2CbbpujH-HPQyCx-151" value="" style="edgeStyle=orthogonalEdgeStyle;rounded=0;orthogonalLoop=1;jettySize=auto;html=1;noEdgeStyle=1;orthogonal=1;" edge="1" target="EJuAX2CbbpujH-HPQyCx-152" source="EJuAX2CbbpujH-HPQyCx-150" parent="EJuAX2CbbpujH-HPQyCx-130">
          <mxGeometry relative="1" as="geometry">
            <mxPoint x="889" y="840" as="sourcePoint" />
            <Array as="points">
              <mxPoint x="74.8805046081543" y="342" />
              <mxPoint x="74.8805046081543" y="368" />
            </Array>
          </mxGeometry>
        </mxCell>
        <mxCell id="EJuAX2CbbpujH-HPQyCx-139" value="" style="endArrow=classic;html=1;rounded=1;entryX=0.5;entryY=1;entryDx=0;entryDy=0;curved=0;" edge="1" parent="1" target="EJuAX2CbbpujH-HPQyCx-130">
          <mxGeometry width="50" height="50" relative="1" as="geometry">
            <mxPoint x="80" y="430" as="sourcePoint" />
            <mxPoint x="480" y="340" as="targetPoint" />
            <Array as="points">
              <mxPoint x="80" y="480" />
              <mxPoint x="445" y="480" />
            </Array>
          </mxGeometry>
        </mxCell>
        <mxCell id="EJuAX2CbbpujH-HPQyCx-140" value="tRPC request&lt;div&gt;&lt;br&gt;&lt;/div&gt;" style="edgeLabel;html=1;align=center;verticalAlign=middle;resizable=0;points=[];labelBackgroundColor=none;" vertex="1" connectable="0" parent="EJuAX2CbbpujH-HPQyCx-139">
          <mxGeometry x="0.0274" y="-2" relative="1" as="geometry">
            <mxPoint x="-7" y="-2" as="offset" />
          </mxGeometry>
        </mxCell>
        <mxCell id="EJuAX2CbbpujH-HPQyCx-154" style="edgeStyle=orthogonalEdgeStyle;rounded=1;orthogonalLoop=1;jettySize=auto;html=1;exitX=0;exitY=0.5;exitDx=0;exitDy=0;entryX=1.011;entryY=-0.017;entryDx=0;entryDy=0;entryPerimeter=0;curved=0;dashed=1;" edge="1" parent="1" source="EJuAX2CbbpujH-HPQyCx-152" target="EJuAX2CbbpujH-HPQyCx-117">
          <mxGeometry relative="1" as="geometry">
            <Array as="points">
              <mxPoint x="260" y="400" />
              <mxPoint x="260" y="70" />
            </Array>
          </mxGeometry>
        </mxCell>
        <mxCell id="EJuAX2CbbpujH-HPQyCx-158" value="Tényleges válasz" style="edgeLabel;html=1;align=center;verticalAlign=middle;resizable=0;points=[];" vertex="1" connectable="0" parent="EJuAX2CbbpujH-HPQyCx-154">
          <mxGeometry x="0.3805" y="3" relative="1" as="geometry">
            <mxPoint as="offset" />
          </mxGeometry>
        </mxCell>
        <mxCell id="EJuAX2CbbpujH-HPQyCx-159" value="" style="endArrow=classic;html=1;rounded=0;entryX=1.043;entryY=0.706;entryDx=0;entryDy=0;entryPerimeter=0;dashed=1;" edge="1" parent="1">
          <mxGeometry width="50" height="50" relative="1" as="geometry">
            <mxPoint x="310" y="41" as="sourcePoint" />
            <mxPoint x="164.9950000000002" y="41.180000000000064" as="targetPoint" />
          </mxGeometry>
        </mxCell>
        <mxCell id="EJuAX2CbbpujH-HPQyCx-160" value="A kérés hibás&lt;div&gt;A lista érvénytelen&lt;/div&gt;" style="edgeLabel;html=1;align=center;verticalAlign=middle;resizable=0;points=[];" vertex="1" connectable="0" parent="EJuAX2CbbpujH-HPQyCx-159">
          <mxGeometry x="0.0418" y="-3" relative="1" as="geometry">
            <mxPoint as="offset" />
          </mxGeometry>
        </mxCell>
      </root>
    </mxGraphModel>
  </diagram>
</mxfile>
